<mxfile host="app.diagrams.net" modified="2022-05-17T08:55:49.044Z" agent="5.0 (Macintosh; Intel Mac OS X 10_15_7) AppleWebKit/537.36 (KHTML, like Gecko) Chrome/101.0.0.0 Safari/537.36" etag="ckkHkvxoESLMzAbxuE9o" version="18.0.6" type="github">
  <diagram id="vYhIYeuhMKYq1YM2tLH0" name="Page-1">
    <mxGraphModel dx="1298" dy="728" grid="1" gridSize="10" guides="1" tooltips="1" connect="1" arrows="1" fold="1" page="1" pageScale="1" pageWidth="850" pageHeight="1100" math="0" shadow="0">
      <root>
        <mxCell id="0" />
        <mxCell id="1" parent="0" />
        <mxCell id="duJFYo-hXxuzxmT1SDnn-63" value="" style="rounded=0;whiteSpace=wrap;html=1;fontSize=16;fillOpacity=50;" parent="1" vertex="1">
          <mxGeometry x="120" y="720" width="2640" height="510" as="geometry" />
        </mxCell>
        <mxCell id="duJFYo-hXxuzxmT1SDnn-35" value="" style="rounded=0;whiteSpace=wrap;html=1;fontSize=16;fillOpacity=50;" parent="1" vertex="1">
          <mxGeometry x="40" y="190" width="2230" height="380" as="geometry" />
        </mxCell>
        <mxCell id="duJFYo-hXxuzxmT1SDnn-19" value="&lt;span style=&quot;font-size: 16px;&quot;&gt;Message Broker&lt;/span&gt;" style="shape=umlLifeline;perimeter=lifelinePerimeter;whiteSpace=wrap;html=1;container=1;collapsible=0;recursiveResize=0;outlineConnect=0;size=90;fontSize=16;" parent="1" vertex="1">
          <mxGeometry x="1130" y="70" width="170" height="1370" as="geometry" />
        </mxCell>
        <mxCell id="duJFYo-hXxuzxmT1SDnn-79" value="" style="html=1;points=[];perimeter=orthogonalPerimeter;fontSize=16;" parent="duJFYo-hXxuzxmT1SDnn-19" vertex="1">
          <mxGeometry x="80" y="760" width="10" height="80" as="geometry" />
        </mxCell>
        <mxCell id="duJFYo-hXxuzxmT1SDnn-3" value="&lt;span style=&quot;font-size: 16px;&quot;&gt;Pool Scan Service Master&lt;/span&gt;" style="shape=umlLifeline;perimeter=lifelinePerimeter;whiteSpace=wrap;html=1;container=1;collapsible=0;recursiveResize=0;outlineConnect=0;size=90;fontSize=16;" parent="1" vertex="1">
          <mxGeometry x="200" y="70" width="160" height="1370" as="geometry" />
        </mxCell>
        <mxCell id="duJFYo-hXxuzxmT1SDnn-66" value="" style="html=1;points=[];perimeter=orthogonalPerimeter;fontSize=16;" parent="duJFYo-hXxuzxmT1SDnn-3" vertex="1">
          <mxGeometry x="75" y="590" width="10" height="310" as="geometry" />
        </mxCell>
        <mxCell id="duJFYo-hXxuzxmT1SDnn-90" value="" style="html=1;points=[];perimeter=orthogonalPerimeter;fontSize=16;" parent="duJFYo-hXxuzxmT1SDnn-3" vertex="1">
          <mxGeometry x="75" y="140" width="10" height="100" as="geometry" />
        </mxCell>
        <mxCell id="duJFYo-hXxuzxmT1SDnn-14" value="&lt;span style=&quot;font-size: 16px;&quot;&gt;Other services&lt;/span&gt;" style="shape=umlLifeline;perimeter=lifelinePerimeter;whiteSpace=wrap;html=1;container=1;collapsible=0;recursiveResize=0;outlineConnect=0;size=90;fontSize=16;" parent="1" vertex="1">
          <mxGeometry x="2645" y="70" width="160" height="1370" as="geometry" />
        </mxCell>
        <mxCell id="duJFYo-hXxuzxmT1SDnn-71" value="" style="html=1;points=[];perimeter=orthogonalPerimeter;fontSize=16;" parent="duJFYo-hXxuzxmT1SDnn-14" vertex="1">
          <mxGeometry x="75" y="1190" width="10" height="150" as="geometry" />
        </mxCell>
        <mxCell id="duJFYo-hXxuzxmT1SDnn-83" value="" style="html=1;points=[];perimeter=orthogonalPerimeter;fontSize=16;" parent="duJFYo-hXxuzxmT1SDnn-14" vertex="1">
          <mxGeometry x="75" y="790" width="10" height="60" as="geometry" />
        </mxCell>
        <mxCell id="duJFYo-hXxuzxmT1SDnn-15" value="&lt;span style=&quot;font-size: 16px;&quot;&gt;Pool API Service&lt;/span&gt;" style="shape=umlLifeline;perimeter=lifelinePerimeter;whiteSpace=wrap;html=1;container=1;collapsible=0;recursiveResize=0;outlineConnect=0;size=90;fontSize=16;" parent="1" vertex="1">
          <mxGeometry x="2380" y="70" width="160" height="1370" as="geometry" />
        </mxCell>
        <mxCell id="duJFYo-hXxuzxmT1SDnn-69" value="" style="html=1;points=[];perimeter=orthogonalPerimeter;fontSize=16;" parent="duJFYo-hXxuzxmT1SDnn-15" vertex="1">
          <mxGeometry x="75" y="1190" width="10" height="150" as="geometry" />
        </mxCell>
        <mxCell id="duJFYo-hXxuzxmT1SDnn-16" value="&lt;span style=&quot;font-size: 16px;&quot;&gt;Datastore&lt;/span&gt;&lt;br style=&quot;font-size: 16px;&quot;&gt;&lt;span style=&quot;font-size: 16px;&quot;&gt;(Redis)&lt;/span&gt;" style="shape=umlLifeline;perimeter=lifelinePerimeter;whiteSpace=wrap;html=1;container=1;collapsible=0;recursiveResize=0;outlineConnect=0;size=90;fontSize=16;" parent="1" vertex="1">
          <mxGeometry x="2090" y="70" width="160" height="1370" as="geometry" />
        </mxCell>
        <mxCell id="duJFYo-hXxuzxmT1SDnn-68" value="" style="html=1;points=[];perimeter=orthogonalPerimeter;fontSize=16;" parent="duJFYo-hXxuzxmT1SDnn-16" vertex="1">
          <mxGeometry x="75" y="1230" width="10" height="100" as="geometry" />
        </mxCell>
        <mxCell id="duJFYo-hXxuzxmT1SDnn-80" value="" style="html=1;points=[];perimeter=orthogonalPerimeter;fontSize=16;" parent="duJFYo-hXxuzxmT1SDnn-16" vertex="1">
          <mxGeometry x="75" y="1040" width="10" height="50" as="geometry" />
        </mxCell>
        <mxCell id="duJFYo-hXxuzxmT1SDnn-88" value="" style="html=1;points=[];perimeter=orthogonalPerimeter;fontSize=16;" parent="duJFYo-hXxuzxmT1SDnn-16" vertex="1">
          <mxGeometry x="75" y="390" width="10" height="90" as="geometry" />
        </mxCell>
        <mxCell id="duJFYo-hXxuzxmT1SDnn-17" value="&lt;span style=&quot;font-size: 16px;&quot;&gt;Subgraphs&lt;/span&gt;&lt;br style=&quot;font-size: 16px;&quot;&gt;&lt;span style=&quot;font-size: 16px;&quot;&gt;(Ethereum, BSC, Polygon, ...)&lt;/span&gt;" style="shape=umlLifeline;perimeter=lifelinePerimeter;whiteSpace=wrap;html=1;container=1;collapsible=0;recursiveResize=0;outlineConnect=0;size=90;fontSize=16;" parent="1" vertex="1">
          <mxGeometry x="1750" y="70" width="160" height="1370" as="geometry" />
        </mxCell>
        <mxCell id="duJFYo-hXxuzxmT1SDnn-87" value="" style="html=1;points=[];perimeter=orthogonalPerimeter;fontSize=16;" parent="duJFYo-hXxuzxmT1SDnn-17" vertex="1">
          <mxGeometry x="75" y="305" width="10" height="90" as="geometry" />
        </mxCell>
        <mxCell id="duJFYo-hXxuzxmT1SDnn-18" value="&lt;span style=&quot;font-size: 16px;&quot;&gt;RPC Nodes&lt;/span&gt;&lt;br style=&quot;font-size: 16px; padding: 0px; margin: 0px;&quot;&gt;&lt;span style=&quot;font-size: 16px;&quot;&gt;(Ethereum, BSC, Polygon, ...)&lt;/span&gt;" style="shape=umlLifeline;perimeter=lifelinePerimeter;whiteSpace=wrap;html=1;container=1;collapsible=0;recursiveResize=0;outlineConnect=0;size=90;fontSize=16;" parent="1" vertex="1">
          <mxGeometry x="830" y="70" width="160" height="1370" as="geometry" />
        </mxCell>
        <mxCell id="duJFYo-hXxuzxmT1SDnn-85" value="" style="html=1;points=[];perimeter=orthogonalPerimeter;fontSize=16;" parent="duJFYo-hXxuzxmT1SDnn-18" vertex="1">
          <mxGeometry x="75" y="290" width="10" height="90" as="geometry" />
        </mxCell>
        <mxCell id="duJFYo-hXxuzxmT1SDnn-20" value="&lt;span style=&quot;font-size: 16px;&quot;&gt;Tasks queue&lt;/span&gt;" style="shape=umlLifeline;perimeter=lifelinePerimeter;whiteSpace=wrap;html=1;container=1;collapsible=0;recursiveResize=0;outlineConnect=0;size=90;fontSize=16;" parent="1" vertex="1">
          <mxGeometry x="520" y="70" width="160" height="1370" as="geometry" />
        </mxCell>
        <mxCell id="duJFYo-hXxuzxmT1SDnn-67" value="" style="html=1;points=[];perimeter=orthogonalPerimeter;fontSize=16;" parent="duJFYo-hXxuzxmT1SDnn-20" vertex="1">
          <mxGeometry x="75" y="950" width="10" height="160" as="geometry" />
        </mxCell>
        <mxCell id="duJFYo-hXxuzxmT1SDnn-78" value="" style="html=1;points=[];perimeter=orthogonalPerimeter;fontSize=16;" parent="duJFYo-hXxuzxmT1SDnn-20" vertex="1">
          <mxGeometry x="75" y="730" width="10" height="40" as="geometry" />
        </mxCell>
        <mxCell id="duJFYo-hXxuzxmT1SDnn-89" value="" style="html=1;points=[];perimeter=orthogonalPerimeter;fontSize=16;" parent="duJFYo-hXxuzxmT1SDnn-20" vertex="1">
          <mxGeometry x="75" y="150" width="10" height="100" as="geometry" />
        </mxCell>
        <mxCell id="duJFYo-hXxuzxmT1SDnn-21" value="&lt;span style=&quot;font-size: 16px;&quot;&gt;Pool Scan Service Worker&lt;/span&gt;" style="shape=umlLifeline;perimeter=lifelinePerimeter;whiteSpace=wrap;html=1;container=1;collapsible=0;recursiveResize=0;outlineConnect=0;size=90;fontSize=16;" parent="1" vertex="1">
          <mxGeometry x="1440" y="75" width="160" height="1365" as="geometry" />
        </mxCell>
        <mxCell id="duJFYo-hXxuzxmT1SDnn-72" value="" style="html=1;points=[];perimeter=orthogonalPerimeter;fontSize=16;" parent="duJFYo-hXxuzxmT1SDnn-21" vertex="1">
          <mxGeometry x="75" y="935" width="10" height="160" as="geometry" />
        </mxCell>
        <mxCell id="duJFYo-hXxuzxmT1SDnn-86" value="" style="html=1;points=[];perimeter=orthogonalPerimeter;fontSize=16;" parent="duJFYo-hXxuzxmT1SDnn-21" vertex="1">
          <mxGeometry x="75" y="150" width="10" height="310" as="geometry" />
        </mxCell>
        <mxCell id="duJFYo-hXxuzxmT1SDnn-22" value="generate tasks" style="html=1;verticalAlign=bottom;endArrow=block;rounded=0;fontSize=16;entryX=0.5;entryY=0.2;entryDx=0;entryDy=0;entryPerimeter=0;" parent="1" source="duJFYo-hXxuzxmT1SDnn-90" target="duJFYo-hXxuzxmT1SDnn-89" edge="1">
          <mxGeometry width="80" relative="1" as="geometry">
            <mxPoint x="340" y="230" as="sourcePoint" />
            <mxPoint x="510" y="230" as="targetPoint" />
          </mxGeometry>
        </mxCell>
        <mxCell id="duJFYo-hXxuzxmT1SDnn-23" value="pick task" style="html=1;verticalAlign=bottom;endArrow=none;rounded=0;fontSize=16;startArrow=classic;startFill=1;endFill=0;entryX=0.5;entryY=0.081;entryDx=0;entryDy=0;entryPerimeter=0;" parent="1" target="duJFYo-hXxuzxmT1SDnn-86" edge="1">
          <mxGeometry width="80" relative="1" as="geometry">
            <mxPoint x="610" y="250" as="sourcePoint" />
            <mxPoint x="1410" y="250" as="targetPoint" />
          </mxGeometry>
        </mxCell>
        <mxCell id="duJFYo-hXxuzxmT1SDnn-26" value="Return data from RPC node" style="html=1;verticalAlign=bottom;endArrow=none;dashed=1;endSize=8;rounded=0;fontSize=16;startArrow=classic;startFill=1;endFill=0;entryX=0.967;entryY=0.747;entryDx=0;entryDy=0;entryPerimeter=0;" parent="1" edge="1">
          <mxGeometry relative="1" as="geometry">
            <mxPoint x="1515" y="429.6400000000001" as="sourcePoint" />
            <mxPoint x="914.6700000000001" y="429.6400000000001" as="targetPoint" />
          </mxGeometry>
        </mxCell>
        <mxCell id="duJFYo-hXxuzxmT1SDnn-27" value="Get data from subgraph" style="html=1;verticalAlign=bottom;endArrow=block;rounded=0;fontSize=16;entryX=0.5;entryY=0.278;entryDx=0;entryDy=0;entryPerimeter=0;" parent="1" source="duJFYo-hXxuzxmT1SDnn-86" target="duJFYo-hXxuzxmT1SDnn-87" edge="1">
          <mxGeometry width="80" relative="1" as="geometry">
            <mxPoint x="1560" y="400" as="sourcePoint" />
            <mxPoint x="1730" y="400" as="targetPoint" />
          </mxGeometry>
        </mxCell>
        <mxCell id="duJFYo-hXxuzxmT1SDnn-28" value="Return data from subgraph" style="html=1;verticalAlign=bottom;endArrow=open;dashed=1;endSize=8;rounded=0;fontSize=16;exitX=0.5;exitY=0.833;exitDx=0;exitDy=0;exitPerimeter=0;" parent="1" source="duJFYo-hXxuzxmT1SDnn-87" target="duJFYo-hXxuzxmT1SDnn-86" edge="1">
          <mxGeometry relative="1" as="geometry">
            <mxPoint x="1720" y="450" as="sourcePoint" />
            <mxPoint x="1580" y="450" as="targetPoint" />
          </mxGeometry>
        </mxCell>
        <mxCell id="duJFYo-hXxuzxmT1SDnn-29" value="Successful: save pool data" style="html=1;verticalAlign=bottom;endArrow=block;rounded=0;fontSize=16;" parent="1" target="duJFYo-hXxuzxmT1SDnn-88" edge="1">
          <mxGeometry width="80" relative="1" as="geometry">
            <mxPoint x="1530" y="510" as="sourcePoint" />
            <mxPoint x="2060" y="510" as="targetPoint" />
          </mxGeometry>
        </mxCell>
        <mxCell id="duJFYo-hXxuzxmT1SDnn-31" value="return pool event" style="html=1;verticalAlign=bottom;endArrow=open;dashed=1;endSize=8;rounded=0;fontSize=16;entryX=0.9;entryY=0.324;entryDx=0;entryDy=0;entryPerimeter=0;" parent="1" source="duJFYo-hXxuzxmT1SDnn-77" target="duJFYo-hXxuzxmT1SDnn-66" edge="1">
          <mxGeometry relative="1" as="geometry">
            <mxPoint x="820" y="760" as="sourcePoint" />
            <mxPoint x="370" y="760" as="targetPoint" />
          </mxGeometry>
        </mxCell>
        <mxCell id="duJFYo-hXxuzxmT1SDnn-32" value="Create task for each pool event" style="html=1;verticalAlign=bottom;endArrow=classic;rounded=0;fontSize=16;startArrow=none;startFill=0;endFill=1;entryX=0.5;entryY=0.608;entryDx=0;entryDy=0;entryPerimeter=0;" parent="1" source="duJFYo-hXxuzxmT1SDnn-66" target="duJFYo-hXxuzxmT1SDnn-78" edge="1">
          <mxGeometry width="80" relative="1" as="geometry">
            <mxPoint x="320" y="824.6600000000001" as="sourcePoint" />
            <mxPoint x="565" y="824.33" as="targetPoint" />
          </mxGeometry>
        </mxCell>
        <mxCell id="duJFYo-hXxuzxmT1SDnn-33" value="Pick task to process pool event" style="html=1;verticalAlign=bottom;endArrow=none;rounded=0;fontSize=16;startArrow=classic;startFill=1;endFill=0;entryX=-0.3;entryY=0.177;entryDx=0;entryDy=0;entryPerimeter=0;" parent="1" target="duJFYo-hXxuzxmT1SDnn-72" edge="1">
          <mxGeometry width="80" relative="1" as="geometry">
            <mxPoint x="599.1666666666665" y="1040" as="sourcePoint" />
            <mxPoint x="1519.5" y="1040" as="targetPoint" />
            <Array as="points">
              <mxPoint x="790" y="1040" />
            </Array>
          </mxGeometry>
        </mxCell>
        <mxCell id="duJFYo-hXxuzxmT1SDnn-36" value="Bootstrapping step" style="text;html=1;strokeColor=none;fillColor=none;align=center;verticalAlign=middle;whiteSpace=wrap;rounded=0;dashed=1;fontSize=16;" parent="1" vertex="1">
          <mxGeometry x="50" y="210" width="130" height="30" as="geometry" />
        </mxCell>
        <mxCell id="duJFYo-hXxuzxmT1SDnn-37" value="Failed: unack, task will be put back in tasks queue" style="html=1;verticalAlign=bottom;endArrow=none;rounded=0;fontSize=16;startArrow=classic;startFill=1;endFill=0;" parent="1" source="duJFYo-hXxuzxmT1SDnn-20" target="duJFYo-hXxuzxmT1SDnn-21" edge="1">
          <mxGeometry width="80" relative="1" as="geometry">
            <mxPoint x="690" y="1154" as="sourcePoint" />
            <mxPoint x="1490" y="1154" as="targetPoint" />
            <Array as="points">
              <mxPoint x="1330" y="1150" />
            </Array>
          </mxGeometry>
        </mxCell>
        <mxCell id="duJFYo-hXxuzxmT1SDnn-40" value="Publish pool event for other services to consume" style="html=1;verticalAlign=bottom;endArrow=classic;rounded=0;fontSize=16;startArrow=none;startFill=0;endFill=1;entryX=0;entryY=0.625;entryDx=0;entryDy=0;entryPerimeter=0;" parent="1" source="duJFYo-hXxuzxmT1SDnn-66" target="duJFYo-hXxuzxmT1SDnn-79" edge="1">
          <mxGeometry width="80" relative="1" as="geometry">
            <mxPoint x="320" y="880.33" as="sourcePoint" />
            <mxPoint x="1120" y="880" as="targetPoint" />
          </mxGeometry>
        </mxCell>
        <mxCell id="duJFYo-hXxuzxmT1SDnn-51" value="get list of pools" style="html=1;verticalAlign=bottom;endArrow=none;rounded=0;fontSize=16;startArrow=classic;startFill=1;endFill=0;" parent="1" edge="1">
          <mxGeometry width="80" relative="1" as="geometry">
            <mxPoint x="2168.5" y="1330" as="sourcePoint" />
            <mxPoint x="2459.5" y="1330" as="targetPoint" />
            <Array as="points">
              <mxPoint x="2280" y="1330" />
            </Array>
          </mxGeometry>
        </mxCell>
        <mxCell id="duJFYo-hXxuzxmT1SDnn-54" value="return list of pools" style="html=1;verticalAlign=bottom;endArrow=none;dashed=1;endSize=8;rounded=0;fontSize=16;startArrow=classic;startFill=1;endFill=0;" parent="1" edge="1">
          <mxGeometry relative="1" as="geometry">
            <mxPoint x="2724.5" y="1390" as="sourcePoint" />
            <mxPoint x="2458.5" y="1390" as="targetPoint" />
            <Array as="points">
              <mxPoint x="2620" y="1390" />
            </Array>
          </mxGeometry>
        </mxCell>
        <mxCell id="duJFYo-hXxuzxmT1SDnn-57" value="consume pool events" style="html=1;verticalAlign=bottom;endArrow=none;dashed=1;endSize=8;rounded=0;fontSize=16;startArrow=classic;startFill=1;endFill=0;" parent="1" edge="1">
          <mxGeometry relative="1" as="geometry">
            <mxPoint x="2724.5" y="890" as="sourcePoint" />
            <mxPoint x="1214.1666666666665" y="890" as="targetPoint" />
            <Array as="points">
              <mxPoint x="1740" y="890" />
            </Array>
          </mxGeometry>
        </mxCell>
        <mxCell id="duJFYo-hXxuzxmT1SDnn-64" value="Repeat" style="text;html=1;align=center;verticalAlign=middle;resizable=0;points=[];autosize=1;strokeColor=none;fillColor=none;fontSize=16;" parent="1" vertex="1">
          <mxGeometry x="130" y="730" width="70" height="20" as="geometry" />
        </mxCell>
        <mxCell id="duJFYo-hXxuzxmT1SDnn-50" value="get list of pools" style="html=1;verticalAlign=bottom;endArrow=none;rounded=0;fontSize=16;startArrow=classic;startFill=1;endFill=0;" parent="1" edge="1">
          <mxGeometry width="80" relative="1" as="geometry">
            <mxPoint x="2458.5" y="1290" as="sourcePoint" />
            <mxPoint x="2724.5" y="1290" as="targetPoint" />
            <Array as="points">
              <mxPoint x="2650" y="1290" />
            </Array>
          </mxGeometry>
        </mxCell>
        <mxCell id="duJFYo-hXxuzxmT1SDnn-52" value="return list of pools" style="html=1;verticalAlign=bottom;endArrow=none;dashed=1;endSize=8;rounded=0;fontSize=16;startArrow=classic;startFill=1;endFill=0;" parent="1" edge="1">
          <mxGeometry relative="1" as="geometry">
            <mxPoint x="2459.5" y="1370" as="sourcePoint" />
            <mxPoint x="2168.5" y="1370" as="targetPoint" />
            <Array as="points">
              <mxPoint x="2390" y="1370" />
            </Array>
          </mxGeometry>
        </mxCell>
        <mxCell id="duJFYo-hXxuzxmT1SDnn-39" value="Successful: Save pool data" style="html=1;verticalAlign=bottom;endArrow=block;rounded=0;fontSize=16;" parent="1" edge="1">
          <mxGeometry width="80" relative="1" as="geometry">
            <mxPoint x="1519.1666666666665" y="1137" as="sourcePoint" />
            <mxPoint x="2169.5" y="1137" as="targetPoint" />
            <Array as="points">
              <mxPoint x="1640" y="1137" />
            </Array>
          </mxGeometry>
        </mxCell>
        <mxCell id="duJFYo-hXxuzxmT1SDnn-34" value="Return task contains pool event" style="html=1;verticalAlign=bottom;endArrow=none;dashed=1;endSize=8;rounded=0;fontSize=16;startArrow=classic;startFill=1;endFill=0;" parent="1" source="duJFYo-hXxuzxmT1SDnn-21" target="duJFYo-hXxuzxmT1SDnn-20" edge="1">
          <mxGeometry relative="1" as="geometry">
            <mxPoint x="1430" y="1084" as="sourcePoint" />
            <mxPoint x="650" y="1084" as="targetPoint" />
            <Array as="points">
              <mxPoint x="720" y="1080" />
            </Array>
          </mxGeometry>
        </mxCell>
        <mxCell id="duJFYo-hXxuzxmT1SDnn-77" value="" style="html=1;points=[];perimeter=orthogonalPerimeter;fontSize=16;" parent="1" vertex="1">
          <mxGeometry x="904" y="660" width="10" height="120" as="geometry" />
        </mxCell>
        <mxCell id="duJFYo-hXxuzxmT1SDnn-30" value="Subscribe to pool event topics" style="html=1;verticalAlign=bottom;endArrow=classic;rounded=0;fontSize=16;startArrow=none;startFill=0;endFill=1;" parent="1" source="duJFYo-hXxuzxmT1SDnn-3" target="duJFYo-hXxuzxmT1SDnn-18" edge="1">
          <mxGeometry width="80" relative="1" as="geometry">
            <mxPoint x="320" y="690" as="sourcePoint" />
            <mxPoint x="870" y="690" as="targetPoint" />
            <Array as="points">
              <mxPoint x="810" y="680" />
            </Array>
          </mxGeometry>
        </mxCell>
        <mxCell id="duJFYo-hXxuzxmT1SDnn-25" value="Get data from RPC node" style="html=1;verticalAlign=bottom;endArrow=none;rounded=0;fontSize=16;startArrow=classic;startFill=1;endFill=0;entryX=0.5;entryY=0.5;entryDx=0;entryDy=0;entryPerimeter=0;" parent="1" edge="1">
          <mxGeometry width="80" relative="1" as="geometry">
            <mxPoint x="910" y="380" as="sourcePoint" />
            <mxPoint x="1510" y="380" as="targetPoint" />
          </mxGeometry>
        </mxCell>
        <mxCell id="duJFYo-hXxuzxmT1SDnn-24" value="return task" style="html=1;verticalAlign=bottom;endArrow=none;dashed=1;endSize=8;rounded=0;fontSize=16;startArrow=classic;startFill=1;endFill=0;exitX=0.5;exitY=0.274;exitDx=0;exitDy=0;exitPerimeter=0;" parent="1" source="duJFYo-hXxuzxmT1SDnn-86" edge="1">
          <mxGeometry relative="1" as="geometry">
            <mxPoint x="1385" y="310" as="sourcePoint" />
            <mxPoint x="605" y="310" as="targetPoint" />
          </mxGeometry>
        </mxCell>
        <mxCell id="duJFYo-hXxuzxmT1SDnn-92" value="Failed: unack, task will be put back in tasks queue" style="html=1;verticalAlign=bottom;endArrow=none;rounded=0;fontSize=16;startArrow=classic;startFill=1;endFill=0;" parent="1" edge="1">
          <mxGeometry width="80" relative="1" as="geometry">
            <mxPoint x="609.1666666666665" y="520" as="sourcePoint" />
            <mxPoint x="1529.5" y="520" as="targetPoint" />
            <Array as="points">
              <mxPoint x="1340" y="520" />
            </Array>
          </mxGeometry>
        </mxCell>
      </root>
    </mxGraphModel>
  </diagram>
</mxfile>
